<svg xmlns="http://www.w3.org/2000/svg" version="1.0" preserveAspectRatio="xMidYMid meet" viewBox="246 223.05 588.04 588.44">

<g transform="translate(0.000000,1080.000000) scale(0.100000,-0.100000)" fill="#000000" stroke="none">
<path d="M5130 8559 c-582 -60 -1110 -274 -1570 -638 -127 -101 -358 -332 -459 -460 -422 -534 -640 -1158 -641 -1831 0 -324 42 -601 137 -894 258 -800 828 -1441 1593 -1791 262 -119 522 -194 845 -242 165 -24 558 -24 735 1 354 49 614 128 935 286 299 146 528 311 771 554 473 473 760 1052 845 1706 26 205 26 533 -1 747 -163 1272 -1151 2308 -2411 2528 -243 43 -559 56 -779 34z m475 -39 c755 -54 1437 -386 1948 -948 656 -721 901 -1735 652 -2690 -220 -839 -844 -1569 -1633 -1909 -424 -183 -779 -251 -1246 -240 -389 9 -693 71 -1024 209 -1258 522 -1974 1805 -1762 3157 119 759 558 1453 1205 1906 543 380 1201 562 1860 515z"/>
<path d="M5135 8360 c-602 -75 -1087 -283 -1520 -653 -526 -449 -875 -1111 -945 -1792 -16 -154 -8 -553 15 -695 121 -773 562 -1460 1210 -1886 344 -225 755 -377 1168 -429 159 -20 523 -20 687 0 774 96 1504 548 1926 1191 254 389 406 801 453 1236 16 139 13 462 -4 609 -88 754 -485 1437 -1098 1891 -358 265 -737 425 -1192 504 -127 22 -186 27 -390 29 -132 2 -271 0 -310 -5z m505 -40 c499 -44 980 -227 1375 -525 607 -458 983 -1116 1072 -1875 21 -188 14 -545 -16 -720 -99 -578 -353 -1072 -766 -1486 -377 -378 -861 -637 -1383 -738 -182 -36 -320 -48 -542 -48 -343 -1 -641 55 -965 182 -902 355 -1539 1153 -1690 2120 -23 144 -31 526 -15 672 56 518 255 1005 575 1408 149 189 420 436 625 572 508 336 1121 491 1730 438z"/>
<path d="M5486 7961 c-7 -10 -46 -408 -46 -460 l0 -41 54 0 54 0 7 76 8 77 105 -7 c121 -7 132 -2 132 55 0 22 -1 40 -2 40 -2 1 -52 4 -113 8 l-109 6 2 55 c4 85 9 93 46 86 17 -4 70 -9 118 -13 87 -6 87 -6 93 20 4 14 5 36 3 48 -3 23 -9 25 -123 36 -66 6 -144 14 -172 16 -29 3 -55 2 -57 -2z"/>
<path d="M4760 7881 c-74 -21 -147 -41 -162 -45 -16 -3 -28 -13 -28 -20 0 -21 121 -460 129 -469 4 -4 63 8 132 27 68 19 144 39 167 46 44 11 44 11 37 48 -11 62 -18 63 -138 29 -66 -19 -111 -27 -117 -21 -5 5 -12 27 -15 50 l-7 40 94 25 93 26 -2 38 c-2 21 -7 43 -12 48 -7 7 -42 1 -98 -14 -48 -13 -92 -24 -97 -24 -15 0 -40 86 -27 94 6 4 58 20 117 36 l106 29 -6 40 c-7 42 -13 56 -24 55 -4 0 -68 -17 -142 -38z"/>
<path d="M6071 7859 c-28 -76 -151 -438 -151 -447 0 -8 189 -78 307 -113 28 -9 45 10 46 53 2 32 2 32 -100 67 -56 20 -105 39 -108 43 -7 7 12 77 24 91 4 4 45 -6 91 -23 46 -16 88 -30 95 -30 14 0 35 42 35 70 0 14 -18 24 -82 45 -46 15 -87 31 -92 35 -5 5 -6 23 -2 42 12 65 13 65 135 22 121 -42 128 -41 137 18 l6 35 -148 51 c-82 28 -157 53 -166 57 -13 5 -20 1 -27 -16z"/>
<path d="M4257 7695 c-20 -14 -37 -28 -37 -30 0 -3 17 -33 38 -67 70 -115 70 -103 10 -142 -29 -18 -78 -48 -110 -65 l-56 -32 -52 86 c-28 47 -57 85 -63 85 -17 0 -88 -50 -84 -58 26 -45 242 -409 248 -416 7 -8 99 38 99 49 0 2 -20 38 -45 78 -25 41 -45 79 -45 85 0 10 208 138 214 131 2 -2 25 -39 51 -81 25 -43 49 -78 52 -78 16 0 83 46 83 57 0 21 -242 423 -254 423 -6 0 -28 -11 -49 -25z"/>
<path d="M6619 7628 c-7 -13 -66 -106 -131 -207 -94 -148 -116 -187 -106 -197 25 -24 269 -174 282 -174 16 0 46 42 46 63 0 8 -40 40 -90 71 -49 32 -92 62 -96 67 -3 6 6 28 20 50 30 45 27 45 128 -23 31 -21 63 -38 70 -38 14 0 48 49 48 68 0 5 -34 31 -75 57 -41 25 -77 50 -80 55 -3 5 1 22 9 38 29 57 35 57 141 -10 l98 -61 24 27 c12 15 23 33 23 41 0 11 -276 195 -293 195 -4 0 -12 -10 -18 -22z"/>
<path d="M3545 7154 l-147 -156 28 -29 c15 -16 33 -29 39 -29 6 0 33 23 60 50 28 28 55 49 62 48 7 -2 73 -60 147 -130 74 -71 138 -128 143 -128 5 0 25 16 44 36 l34 36 -143 136 c-78 76 -142 142 -142 147 0 6 20 31 45 55 25 24 45 51 45 60 0 18 -40 60 -57 60 -6 0 -77 -70 -158 -156z"/>
<path d="M7082 7287 c-12 -13 -22 -29 -22 -36 0 -6 20 -34 45 -60 25 -26 45 -52 45 -57 1 -5 -63 -70 -141 -145 l-142 -135 33 -37 c18 -20 36 -37 42 -37 5 0 70 57 144 128 74 70 140 128 147 130 7 1 34 -20 62 -48 27 -27 54 -50 60 -50 6 0 24 13 39 29 l28 29 -148 156 c-81 86 -152 156 -159 156 -6 0 -21 -10 -33 -23z"/>
<path d="M6070 6762 c-18 -19 -32 -47 -39 -83 -29 -137 -141 -256 -284 -301 -62 -19 -114 -22 -190 -12 l-46 7 -27 70 c-33 85 -82 142 -149 173 -86 41 -149 25 -185 -45 -37 -74 -142 -316 -180 -417 -41 -109 -119 -271 -178 -369 -128 -214 -268 -372 -543 -616 -87 -76 -171 -155 -188 -176 -48 -58 -64 -120 -59 -227 3 -78 9 -101 38 -161 39 -82 112 -159 185 -195 41 -20 68 -25 155 -28 167 -6 72 -52 1155 553 264 148 548 304 630 348 355 189 430 233 504 297 103 89 134 148 129 245 -3 68 -6 75 -127 295 -68 123 -147 262 -176 308 -57 92 -249 311 -300 342 -47 29 -91 26 -125 -8z m191 -149 c63 -65 130 -143 150 -173 65 -97 270 -473 265 -485 -6 -18 -307 -180 -325 -177 -9 2 -45 17 -81 34 -167 81 -315 306 -345 525 l-7 52 50 50 c59 59 106 138 123 206 12 48 34 85 49 85 4 0 58 -53 121 -117z m-915 -78 c40 -31 74 -80 74 -109 0 -15 -5 -17 -32 -12 -18 3 -77 9 -130 12 l-97 7 25 55 c13 31 30 62 36 70 18 21 82 9 124 -23z m0 -183 c9 -5 1 -34 -28 -109 -41 -103 -43 -133 -10 -133 27 0 35 12 77 118 21 50 41 94 45 97 4 3 27 -3 51 -12 66 -24 217 -22 296 6 78 26 83 26 83 -2 0 -30 32 -139 60 -207 70 -164 172 -275 345 -375 15 -9 -31 -38 -276 -174 -162 -90 -456 -256 -654 -369 -423 -241 -571 -319 -755 -400 -226 -99 -466 -174 -482 -150 -17 27 -31 95 -31 154 -1 105 28 149 201 302 81 72 188 170 237 217 l90 87 80 -5 c103 -7 163 4 251 48 124 61 193 151 298 391 37 84 44 109 36 124 -18 33 -49 25 -66 -17 -55 -135 -124 -274 -159 -322 -51 -70 -132 -126 -210 -146 -67 -17 -151 -20 -160 -5 -3 5 17 40 46 77 71 93 149 215 208 327 46 85 68 138 156 363 30 78 56 109 101 123 30 10 149 4 170 -8z m1387 -534 c0 -65 -17 -99 -80 -159 -68 -65 -141 -112 -353 -224 -164 -86 -816 -447 -1469 -813 -291 -163 -322 -176 -431 -175 -102 0 -168 24 -225 83 -32 33 -35 39 -19 44 11 3 60 16 110 30 209 58 486 185 834 381 798 450 816 460 1295 726 186 104 324 174 329 169 5 -5 9 -33 9 -62z"/>
<path d="M3254 5288 c-5 -7 -18 -30 -29 -52 -22 -43 -38 -52 -109 -61 l-49 -7 48 -48 48 -49 -10 -61 c-5 -33 -6 -63 -1 -66 5 -3 29 6 54 20 58 32 67 32 121 0 24 -14 47 -23 51 -20 5 3 4 33 -1 66 l-10 61 42 42 c22 24 41 46 41 49 0 4 -17 10 -37 13 -81 13 -83 14 -110 70 -28 58 -35 63 -49 43z"/>
<path d="M7488 5246 c-28 -57 -34 -60 -110 -71 -27 -3 -48 -10 -48 -14 0 -5 16 -21 35 -35 50 -38 56 -55 45 -116 -5 -29 -7 -56 -4 -61 3 -5 27 2 54 16 61 31 75 31 125 0 22 -14 44 -25 48 -25 5 0 5 30 2 68 l-7 67 41 40 c23 21 41 42 41 46 0 7 -16 11 -90 23 -31 5 -39 13 -63 61 -15 30 -30 55 -35 55 -4 0 -20 -24 -34 -54z"/>
<path d="M3606 4449 c-87 -60 -160 -110 -163 -113 -6 -6 128 -206 139 -206 26 0 15 37 -31 104 -28 41 -51 76 -51 79 0 12 103 78 114 74 7 -3 30 -33 52 -66 36 -56 62 -73 71 -46 2 6 -17 39 -42 73 -25 34 -45 64 -45 66 0 3 25 23 57 45 l56 41 54 -78 c52 -74 75 -94 87 -74 5 9 -115 196 -132 205 -4 2 -78 -45 -166 -104z"/>
<path d="M6995 4491 c-84 -43 -121 -154 -75 -228 23 -38 86 -73 132 -73 94 0 172 127 129 209 -29 53 8 23 54 -45 43 -63 35 -92 -49 -199 -24 -30 -27 -38 -15 -45 31 -20 132 110 132 171 0 91 -119 208 -229 224 -28 4 -50 0 -79 -14z m137 -58 c52 -50 27 -157 -45 -191 -57 -28 -147 34 -147 101 0 70 70 133 135 122 16 -3 42 -17 57 -32z"/>
<path d="M3991 4178 c-13 -7 -33 -25 -44 -40 -27 -36 -18 -76 38 -169 64 -105 58 -169 -16 -169 -33 0 -101 55 -126 103 -13 27 -13 34 2 73 17 45 14 64 -9 64 -18 0 -46 -60 -46 -97 0 -73 117 -187 192 -188 43 0 84 33 93 74 7 33 -12 88 -55 161 -55 93 -51 150 10 150 33 0 84 -40 106 -83 14 -26 14 -36 3 -69 -10 -31 -10 -41 0 -51 10 -9 17 -7 33 13 43 53 5 159 -74 208 -46 28 -79 34 -107 20z"/>
<path d="M6652 4115 c-96 -70 -115 -112 -87 -195 18 -55 98 -151 146 -175 132 -69 286 96 209 223 -78 128 -274 71 -274 -80 l0 -49 -22 43 c-27 51 -30 114 -8 146 8 12 40 40 69 62 36 27 52 45 49 55 -9 22 -16 19 -82 -30z m204 -148 c26 -24 37 -43 41 -74 5 -40 3 -46 -35 -83 -52 -52 -104 -56 -154 -11 -28 25 -33 36 -33 76 0 42 4 50 42 86 54 50 89 52 139 6z"/>
<path d="M4360 3905 c0 -8 22 -26 49 -40 27 -13 52 -29 56 -35 3 -6 -30 -80 -75 -165 -45 -85 -78 -159 -75 -165 17 -27 40 2 117 145 45 85 87 155 93 155 5 0 28 -11 50 -25 47 -29 78 -32 73 -8 -3 18 -240 151 -270 152 -10 1 -18 -6 -18 -14z"/>
<path d="M6200 3818 c-80 -42 -109 -110 -84 -205 31 -119 112 -190 207 -180 127 12 183 135 121 267 -30 66 -56 96 -106 121 -49 25 -84 24 -138 -3z m96 -32 c9 -23 -56 -278 -70 -273 -18 6 -55 67 -67 111 -21 76 3 134 66 162 39 17 64 17 71 0z m98 -86 c42 -75 43 -146 2 -189 -29 -30 -82 -48 -110 -38 -12 5 -9 25 14 119 15 62 31 126 34 141 9 39 24 31 60 -33z"/>
<path d="M4780 3623 c-12 -54 -32 -139 -45 -190 -17 -68 -20 -95 -11 -102 20 -16 167 -43 210 -39 60 7 91 32 123 96 23 46 28 71 28 127 0 111 -36 147 -182 184 -45 12 -86 21 -91 21 -5 0 -19 -44 -32 -97z m140 31 c66 -20 94 -37 108 -70 26 -56 5 -173 -40 -221 -12 -13 -37 -26 -55 -29 -36 -7 -150 13 -159 27 -9 15 67 309 80 309 7 0 36 -7 66 -16z"/>
<path d="M5715 3661 c-55 -25 -92 -71 -100 -125 -9 -54 1 -86 24 -86 16 0 19 10 23 61 4 54 9 66 36 90 66 59 146 47 170 -25 27 -83 -31 -168 -155 -227 -63 -30 -65 -32 -59 -62 4 -17 10 -35 14 -38 4 -4 72 4 152 19 117 22 145 30 148 45 5 23 -25 22 -168 -7 -63 -13 -116 -23 -118 -21 -2 1 16 12 40 24 137 66 198 135 198 225 0 117 -97 176 -205 127z"/>
</g>
</svg>